<?xml version="1.0" encoding="utf-8"?>
<!-- Generator: Adobe Illustrator 17.0.1, SVG Export Plug-In . SVG Version: 6.00 Build 0)  -->
<!DOCTYPE svg PUBLIC "-//W3C//DTD SVG 1.1//EN" "http://www.w3.org/Graphics/SVG/1.1/DTD/svg11.dtd">
<svg version="1.1" id="Layer_1" xmlns="http://www.w3.org/2000/svg" xmlns:xlink="http://www.w3.org/1999/xlink" x="0px" y="0px"
	 width="90px" height="59px" viewBox="0 0 90 59" enable-background="new 0 0 90 59" xml:space="preserve">
<g>
	<path d="M3.162,5.902C5.602,7.214,39.403,25.37,40.661,26.046c1.259,0.676,2.889,1.002,4.531,1.002s3.272-0.326,4.531-1.002
		C50.981,25.37,84.781,7.214,87.222,5.902c2.442-1.311,4.754-5.428,0.267-5.428H2.894C-1.589,0.474,0.719,4.591,3.162,5.902z
		 M88.256,15.902c-2.773,1.447-36.835,19.259-38.533,20.144c-1.699,0.887-2.889,1.002-4.531,1.002s-2.832-0.115-4.531-1.002
		C38.962,35.161,4.903,17.349,2.127,15.902C0.175,14.884,0.192,16.078,0.192,17s0,36.679,0,36.679c0,2.096,2.792,4.795,4.959,4.795
		h80.082c2.167,0,4.959-2.699,4.959-4.795c0,0,0-35.757,0-36.679S90.21,14.884,88.256,15.902z"/>
</g>
</svg>
