<?xml version="1.0" encoding="utf-8"?>
<!-- Generator: Adobe Illustrator 17.0.1, SVG Export Plug-In . SVG Version: 6.00 Build 0)  -->
<!DOCTYPE svg PUBLIC "-//W3C//DTD SVG 1.1//EN" "http://www.w3.org/Graphics/SVG/1.1/DTD/svg11.dtd">
<svg version="1.1" id="Layer_1" xmlns="http://www.w3.org/2000/svg" xmlns:xlink="http://www.w3.org/1999/xlink" x="0px" y="0px"
	 width="97px" height="97px" viewBox="0 0 97 97" enable-background="new 0 0 97 97" xml:space="preserve">
<path d="M48.19,0.473c-26.469,0-48,21.537-48,48.001c0,26.469,21.531,48,48,48c26.469,0,48-21.531,48-48
	C96.19,22.01,74.659,0.473,48.19,0.473z M89.128,48.474c0,9.363-3.177,18-8.479,24.906c-1.5-1.178-3.094-4.34-1.594-7.621
	c1.511-3.301,1.906-10.938,1.563-13.91c-0.333-2.969-1.875-10.131-6.072-10.199c-4.188-0.063-7.063-1.447-9.553-6.416
	c-5.166-10.339,9.698-12.323,4.531-18.052c-1.447-1.605-8.916,6.619-10.01-4.344c-0.073-0.777,0.677-1.949,1.677-3.168
	C77.409,15.12,89.128,30.448,89.128,48.474z M42.565,7.942c-0.979,1.906-3.563,2.682-5.136,4.115
	c-3.416,3.094-4.885,2.666-6.728,5.635c-1.854,2.969-7.834,7.25-7.834,9.396c0,2.145,3.021,4.682,4.531,4.188
	c1.511-0.496,5.49-0.469,7.834,0.354c2.344,0.828,19.572,1.656,14.083,16.22c-1.739,4.629-9.364,3.848-11.396,11.52
	c-0.303,1.121-1.354,5.928-1.428,7.5c-0.125,2.428,1.719,11.59-0.625,11.59c-2.354,0-8.687-8.193-8.687-9.678
	c0-1.484-1.646-6.693-1.646-11.15c0-4.459-7.583-4.387-7.583-10.313c0-5.35,4.114-8.006,3.188-10.568
	c-0.906-2.548-8.136-2.642-11.147-2.948C15.253,20.145,27.639,10.004,42.565,7.942z M35.315,87.322
	c2.458-1.297,2.708-2.973,4.938-3.066c2.552-0.115,4.625-0.996,7.5-1.625c2.552-0.559,7.114-3.146,11.136-3.48
	c3.385-0.275,10.072,0.178,11.875,3.449c-6.479,4.301-14.24,6.813-22.573,6.813C43.69,89.412,39.367,88.671,35.315,87.322z"/>
</svg>
